<svg width="24" height="25" viewBox="0 0 24 25" fill="none" xmlns="http://www.w3.org/2000/svg">
<g clip-path="url(#clip0_6887_5222)">
<path d="M10 3.56717V3.58517C10 3.85617 9.78 4.07617 9.509 4.07617H8.963C8.856 4.99317 8.446 6.98017 6.878 8.41717C7.579 8.77117 8.452 9.01217 9.536 9.06517C9.796 9.07817 10 9.29417 10 9.55517V9.57317C10 9.85417 9.765 10.0782 9.484 10.0642C8.015 9.99317 6.879 9.61617 6 9.07817C5.121 9.61617 3.985 9.99317 2.516 10.0642C2.236 10.0782 2 9.85417 2 9.57317V9.55517C2 9.29517 2.204 9.07817 2.464 9.06517C3.549 9.01117 4.421 8.77017 5.123 8.41717C4.583 7.92217 4.18 7.36217 3.88 6.80317C3.704 6.47417 3.939 6.07617 4.312 6.07617C4.493 6.07617 4.657 6.17617 4.744 6.33417C5.035 6.86817 5.439 7.40117 6.001 7.85317C7.475 6.66817 7.863 4.92817 7.965 4.07617H2.491C2.22 4.07617 2 3.85617 2 3.58517V3.56717C2 3.29617 2.22 3.07617 2.491 3.07617H5.5V2.56717C5.5 2.29617 5.72 2.07617 5.991 2.07617H6.009C6.28 2.07617 6.5 2.29617 6.5 2.56717V3.07617H9.509C9.78 3.07617 10 3.29617 10 3.56717ZM12 9.07617C12 10.7302 10.654 12.0762 9 12.0762H3C1.346 12.0762 0 10.7302 0 9.07617V3.07617C0 1.42217 1.346 0.0761719 3 0.0761719H9C10.654 0.0761719 12 1.42217 12 3.07617V9.07617ZM11 3.07617C11 1.97317 10.103 1.07617 9 1.07617H3C1.897 1.07617 1 1.97317 1 3.07617V9.07617C1 10.1792 1.897 11.0762 3 11.0762H9C10.103 11.0762 11 10.1792 11 9.07617V3.07617ZM24 15.0762V21.0762C24 22.7302 22.654 24.0762 21 24.0762H15C13.346 24.0762 12 22.7302 12 21.0762V15.0762C12 13.4222 13.346 12.0762 15 12.0762H21C22.654 12.0762 24 13.4222 24 15.0762ZM23 15.0762C23 13.9732 22.103 13.0762 21 13.0762H15C13.897 13.0762 13 13.9732 13 15.0762V21.0762C13 22.1792 13.897 23.0762 15 23.0762H21C22.103 23.0762 23 22.1792 23 21.0762V15.0762ZM20.5 3.07617H16.29L18.36 0.923172C18.551 0.724172 18.545 0.407172 18.346 0.216172C18.146 0.0251719 17.83 0.0311719 17.639 0.230172L15.433 2.52417C14.853 3.10517 14.853 4.04917 15.427 4.62317L17.639 6.92417C18.082 7.39817 18.816 6.69217 18.36 6.23117L16.29 4.07817H20.5C21.878 4.07817 23 5.20017 23 6.57817V9.57817C23 9.85417 23.224 10.0782 23.5 10.0782C23.776 10.0782 24 9.85417 24 9.57817V6.57817C24 4.64817 22.43 3.07817 20.5 3.07817V3.07617ZM6.36 17.2292C6.169 17.0322 5.853 17.0232 5.653 17.2152C5.454 17.4062 5.447 17.7232 5.639 17.9222L7.708 20.0752H3.5C2.122 20.0752 1 18.9542 1 17.5752V14.5752C1 14.2992 0.776 14.0752 0.5 14.0752C0.224 14.0752 0 14.2992 0 14.5752V17.5752C0 19.5052 1.57 21.0752 3.5 21.0752H7.708L5.639 23.2282C5.183 23.6892 5.917 24.3952 6.36 23.9212L8.564 21.6272C9.144 21.0472 9.144 20.1022 8.57 19.5282L6.36 17.2272V17.2292ZM19.488 15.2722L20.91 21.4782C21.062 22.1002 20.079 22.3152 19.945 21.6972L19.571 20.0762H16.456L16.067 21.7012C15.928 22.3172 14.961 22.0912 15.116 21.4752L16.591 15.2232C16.9 13.7022 19.226 13.7292 19.488 15.2722ZM19.34 19.0762L18.513 15.4962C18.429 14.9472 17.678 14.9512 17.564 15.4492L16.695 19.0762H19.34Z" fill="#1C274C"/>
</g>
<defs>
<clipPath id="clip0_6887_5222">
<rect width="24" height="24" fill="white" transform="translate(0 0.0761719)"/>
</clipPath>
</defs>
</svg>
