<svg width="24" height="25" viewBox="0 0 24 25" fill="none" xmlns="http://www.w3.org/2000/svg">
<path d="M13.5 23.0761H4.5C2.57 23.0761 1 21.5061 1 19.5761V4.57615C1 2.64615 2.57 1.07615 4.5 1.07615H10.015C10.349 1.07615 10.678 1.10615 11 1.16415V6.57615C11 7.95515 12.121 9.07615 13.5 9.07615C13.5 9.07615 19.34 9.08615 19.437 9.06015C19.705 8.99215 19.866 8.71915 19.797 8.45215C19.508 7.32215 18.92 6.28915 18.095 5.46515L14.611 1.98115C13.383 0.753149 11.751 0.0771488 10.014 0.0771488H4.499C2.019 0.0761488 0 2.09515 0 4.57615V19.5761C0 22.0571 2.019 24.0761 4.5 24.0761H13.5C13.776 24.0761 14 23.8521 14 23.5761C14 23.3001 13.776 23.0761 13.5 23.0761ZM12 1.44415C12.706 1.71715 13.353 2.13715 13.904 2.68815L17.388 6.17215C17.931 6.71515 18.352 7.36515 18.628 8.07615H13.499C12.672 8.07615 11.999 7.40315 11.999 6.57615V1.44415H12ZM11 14.5761C11 14.8521 10.776 15.0761 10.5 15.0761H4.5C4.224 15.0761 4 14.8521 4 14.5761C4 14.3001 4.224 14.0761 4.5 14.0761H10.5C10.776 14.0761 11 14.3001 11 14.5761ZM11 18.5761C11 18.8521 10.776 19.0761 10.5 19.0761H4.5C4.224 19.0761 4 18.8521 4 18.5761C4 18.3001 4.224 18.0761 4.5 18.0761H10.5C10.776 18.0761 11 18.3001 11 18.5761ZM22.896 12.0071L18.657 10.6021C18.555 10.5691 18.444 10.5691 18.343 10.6021L14.103 12.0071C13.444 12.2271 13 12.8401 13 13.5331V17.4501C13 21.0631 16.868 23.2792 18.053 23.8731C18.053 23.8731 18.297 24.0381 18.501 24.0381C18.705 24.0381 18.92 23.9081 18.92 23.9081C20.112 23.4291 24 21.5451 24 17.4501V13.5331C24 12.8401 23.557 12.2261 22.896 12.0071ZM23 17.4501C23 20.9181 19.569 22.5691 18.523 22.9901C17.467 22.4621 14 20.4902 14 17.4501V13.5331C14 13.2711 14.168 13.0391 14.418 12.9561L18.5 11.6021L22.581 12.9561C22.832 13.0391 23 13.2711 23 13.5331V17.4501ZM11 10.5761C11 10.8521 10.776 11.0761 10.5 11.0761H4.5C4.224 11.0761 4 10.8521 4 10.5761C4 10.3001 4.224 10.0761 4.5 10.0761H10.5C10.776 10.0761 11 10.3001 11 10.5761Z" fill="black"/>
</svg>
