<svg width="24" height="25" viewBox="0 0 24 25" fill="none" xmlns="http://www.w3.org/2000/svg">
<path d="M9 12.0762C12.309 12.0762 15 9.38517 15 6.07617C15 2.76717 12.309 0.0761719 9 0.0761719C5.691 0.0761719 3 2.76717 3 6.07617C3 9.38517 5.691 12.0762 9 12.0762ZM9 1.07617C11.757 1.07617 14 3.31917 14 6.07617C14 8.83317 11.757 11.0762 9 11.0762C6.243 11.0762 4 8.83317 4 6.07617C4 3.31917 6.243 1.07617 9 1.07617ZM12.767 16.0162C11.616 15.4012 10.313 15.0762 9 15.0762C4.589 15.0762 1 18.6652 1 23.0762V23.5762C1 23.8522 0.776 24.0762 0.5 24.0762C0.224 24.0762 0 23.8522 0 23.5762V23.0762C0 18.1142 4.038 14.0762 9 14.0762C10.478 14.0762 11.943 14.4422 13.239 15.1352C13.483 15.2652 13.574 15.5682 13.444 15.8122C13.314 16.0562 13.011 16.1462 12.767 16.0172V16.0162ZM23.267 11.8082C22.324 10.8642 20.675 10.8642 19.732 11.8082L12.025 19.5152C11.364 20.1762 11 21.0552 11 21.9902V23.5762C11 23.8522 11.224 24.0762 11.5 24.0762H13.086C14.021 24.0762 14.9 23.7122 15.561 23.0512L23.268 15.3442C23.74 14.8722 24 14.2442 24 13.5762C24 12.9082 23.739 12.2802 23.267 11.8082ZM22.56 14.6362L14.853 22.3432C14.381 22.8152 13.753 23.0752 13.085 23.0752H11.999V21.9892C11.999 21.3212 12.259 20.6942 12.731 20.2212L20.438 12.5142C21.004 11.9482 21.993 11.9482 22.559 12.5142C22.842 12.7972 22.998 13.1742 22.998 13.5752C22.998 13.9762 22.843 14.3522 22.56 14.6362Z" fill="white"/>
</svg>
