<svg width="24" height="25" viewBox="0 0 24 25" fill="none" xmlns="http://www.w3.org/2000/svg">
<path d="M8 12.0762C11.309 12.0762 14 9.38517 14 6.07617C14 2.76717 11.309 0.0761719 8 0.0761719C4.691 0.0761719 2 2.76717 2 6.07617C2 9.38517 4.691 12.0762 8 12.0762ZM8 1.07617C10.757 1.07617 13 3.31917 13 6.07617C13 8.83317 10.757 11.0762 8 11.0762C5.243 11.0762 3 8.83317 3 6.07617C3 3.31917 5.243 1.07617 8 1.07617ZM20.698 13.3782C21.089 13.7692 21.089 14.4022 20.698 14.7922C20.307 15.1822 19.674 15.1832 19.284 14.7922C18.894 14.4012 18.893 13.7682 19.284 13.3782C19.675 12.9872 20.308 12.9872 20.698 13.3782ZM19 10.0762C16.243 10.0762 14 12.3192 14 15.0762C14 15.5042 14.063 15.9342 14.192 16.3862L13.619 16.9742C13.527 17.0692 13.475 17.1972 13.477 17.3292L13.493 18.5762H13C12.449 18.5762 12 19.0242 12 19.5762V20.5762H11C10.449 20.5762 10 21.0242 10 21.5762V22.5762C10 23.4032 10.673 24.0762 11.5 24.0762H12.502C13.17 24.0762 13.798 23.8142 14.269 23.3442L17.72 19.8922C18.164 20.0162 18.586 20.0772 19 20.0772C21.757 20.0772 24 17.8342 24 15.0772C24 12.3202 21.757 10.0772 19 10.0772V10.0762ZM19 19.0762C18.604 19.0762 18.19 19.0032 17.738 18.8502C17.554 18.7932 17.36 18.8372 17.225 18.9712L13.561 22.6362C13.279 22.9182 12.901 23.0742 12.5 23.0752H11.499C11.223 23.0752 10.999 22.8502 10.999 22.5752V21.5752H12.499C12.775 21.5752 12.999 21.3512 12.999 21.0752V19.5752H13.999C14.133 19.5752 14.261 19.5212 14.354 19.4272C14.449 19.3312 14.5 19.2022 14.499 19.0692L14.479 17.5222L15.116 16.8692C15.248 16.7342 15.292 16.5362 15.23 16.3582C15.075 15.9042 14.999 15.4842 14.999 15.0762C14.999 12.8702 16.793 11.0762 18.999 11.0762C21.205 11.0762 22.999 12.8702 22.999 15.0762C22.999 17.2822 21.206 19.0762 19 19.0762ZM11.266 15.8842C10.268 15.3562 9.139 15.0762 8 15.0762C4.14 15.0762 1 18.2172 1 22.0762V23.5762C1 23.8522 0.776 24.0762 0.5 24.0762C0.224 24.0762 0 23.8522 0 23.5762V22.0762C0 17.6652 3.589 14.0762 8 14.0762C9.301 14.0762 10.592 14.3952 11.734 14.9992C11.978 15.1292 12.071 15.4312 11.942 15.6752C11.813 15.9192 11.511 16.0122 11.266 15.8842Z" fill="black"/>
</svg>
